<svg version="1.1" id="Layer_1" xmlns="http://www.w3.org/2000/svg" xmlns:xlink="http://www.w3.org/1999/xlink" x="0px" y="0px"
	 width="100%" viewBox="0 0 1024 928" enable-background="new 0 0 1024 928" xml:space="preserve">
<path fill="#000000" opacity="1.000000" stroke="none" 
	d="
M723.000000,929.000000 
	C482.000000,929.000000 241.500000,929.000000 1.000000,929.000000 
	C1.000000,619.666687 1.000000,310.333344 1.000000,1.000000 
	C342.333344,1.000000 683.666687,1.000000 1025.000000,1.000000 
	C1025.000000,310.333344 1025.000000,619.666687 1025.000000,929.000000 
	C924.500000,929.000000 824.000000,929.000000 723.000000,929.000000 
M595.689453,796.157837 
	C609.726807,787.354187 623.705078,778.453552 637.848145,769.823181 
	C640.930908,767.941833 641.938416,765.907654 641.934448,762.315308 
	C641.822693,661.161194 641.842346,560.007019 641.840576,458.852814 
	C641.840576,457.061859 641.840637,455.270935 641.840637,453.242737 
	C598.415710,453.242737 555.362488,453.242737 512.191040,453.242737 
	C512.191040,475.539337 512.191040,497.607666 512.191040,520.068970 
	C533.058533,520.068970 553.652710,520.068970 574.348938,520.068970 
	C574.432495,521.094727 574.530396,521.735596 574.530457,522.376465 
	C574.535217,589.367920 574.557434,656.359436 574.399841,723.350525 
	C574.395569,725.189819 572.915222,727.749695 571.344055,728.750854 
	C552.495850,740.760986 533.531555,752.591003 514.477661,764.272339 
	C513.098572,765.117798 510.323914,765.191162 508.978180,764.360168 
	C489.964966,752.620544 471.111908,740.621887 452.144897,728.806580 
	C449.752655,727.316406 448.933868,725.681396 448.935120,722.862793 
	C449.008484,557.049927 449.006592,391.237000 448.948059,225.424118 
	C448.947083,222.695251 449.665710,220.947937 451.933289,219.238922 
	C472.218872,203.950165 492.391876,188.512085 512.667542,173.064941 
	C531.983032,187.965515 551.278137,202.944733 570.716614,217.735443 
	C573.374146,219.757553 574.472595,221.719162 574.462891,225.109085 
	C574.373169,256.435760 574.482300,287.763031 574.549622,319.090118 
	C574.552307,320.339508 574.715027,321.588531 574.795410,322.727783 
	C597.307190,322.727783 619.405029,322.727783 641.837952,322.727783 
	C641.837952,320.996185 641.837891,319.532837 641.837952,318.069489 
	C641.840088,275.908020 641.795044,233.746414 641.929932,191.585373 
	C641.941223,188.043213 640.791382,185.882660 638.052673,183.782745 
	C603.382141,157.199112 568.794434,130.507614 534.176331,103.855705 
	C526.999573,98.330467 519.784668,92.854744 512.683594,87.429741 
	C470.579987,119.563698 429.044403,151.388809 387.295319,182.931366 
	C383.196869,186.027847 381.897430,189.075958 381.900543,193.995911 
	C382.017395,379.806274 381.997742,565.616699 382.006134,751.427124 
	C382.006378,756.755005 380.400421,763.017456 382.653992,767.146240 
	C384.878021,771.220947 391.029053,773.180908 395.504333,775.993591 
	C434.213898,800.321838 472.933990,824.633179 511.700287,848.980591 
	C539.544800,831.496704 567.329285,814.050537 595.689453,796.157837 
M686.260742,218.983917 
	C686.260742,321.404968 686.260742,423.826050 686.260742,526.813599 
	C733.053589,526.813599 779.259949,526.813599 825.724182,526.813599 
	C825.724182,545.852783 825.620056,564.326538 825.819458,582.797119 
	C825.855652,586.151489 824.719177,587.735474 821.852600,589.181519 
	C814.914246,592.681641 808.171631,596.569824 801.350586,600.302490 
	C787.630493,607.810364 773.910828,615.318970 759.606140,623.147461 
	C759.606140,604.185974 759.606140,585.935547 759.606140,567.530457 
	C735.972290,567.530457 712.712891,567.530457 689.225464,567.530457 
	C689.225464,628.788391 689.225464,689.833618 689.225464,751.088623 
	C689.932312,750.928833 690.436890,750.933899 690.808289,750.713928 
	C758.635376,710.556091 826.434143,670.350281 894.328491,630.306702 
	C897.620544,628.365051 898.855042,626.546631 898.844055,622.663818 
	C898.689026,567.833740 898.738708,513.003113 898.738770,458.172607 
	C898.738770,456.729156 898.738770,455.285706 898.738770,453.374023 
	C852.214355,453.374023 806.172607,453.374023 760.087646,453.374023 
	C760.087646,421.703918 760.087646,390.509277 760.087646,358.833435 
	C781.445190,373.291412 802.427551,387.436951 823.289246,401.758209 
	C824.585083,402.647797 825.550537,404.893707 825.614502,406.549316 
	C825.874329,413.282166 825.722534,420.030914 825.722534,426.656799 
	C850.391418,426.656799 874.453857,426.656799 898.744751,426.656799 
	C898.744751,406.334167 898.654785,386.356079 898.831848,366.380310 
	C898.862000,362.983063 897.786438,361.078491 895.008484,359.164978 
	C834.119324,317.222351 773.306519,275.168884 712.475525,233.141739 
	C704.837280,227.864609 697.210754,222.568573 689.480713,217.428864 
	C688.709229,216.915924 686.316711,213.359543 686.260742,218.983917 
M264.526062,585.500366 
	C264.525604,512.504333 264.543213,439.508301 264.465302,366.512360 
	C264.461823,363.254120 265.275238,361.150879 268.036591,359.074707 
	C290.348083,342.299561 312.533112,325.354950 334.622925,308.288879 
	C336.139893,307.116913 337.311157,304.578094 337.389282,302.624786 
	C337.701965,294.804321 337.520111,286.964081 337.520264,279.131134 
	C337.520569,260.033813 337.520355,240.936508 337.520355,221.145126 
	C335.937988,222.257477 334.889984,222.942825 333.896759,223.700012 
	C317.917511,235.882248 301.953003,248.083817 285.970001,260.261108 
	C233.259491,300.420593 180.553726,340.586334 127.792992,380.679718 
	C125.431488,382.474243 124.534286,384.313477 124.550850,387.307739 
	C124.688248,412.139038 124.634415,436.971344 124.638321,461.803375 
	C124.638641,463.813568 124.638359,465.823761 124.638359,468.437317 
	C149.020142,449.866150 172.684326,431.841583 196.767807,413.497650 
	C196.767807,416.340820 196.767639,418.307007 196.767838,420.273224 
	C196.775055,494.600983 196.805405,568.928772 196.711456,643.256409 
	C196.707382,646.484924 197.624023,648.350769 200.384338,650.043213 
	C213.095001,657.836548 225.660385,665.866455 238.294830,673.784485 
	C246.897293,679.175720 255.527664,684.522400 264.528259,690.127380 
	C264.528259,655.100281 264.528259,620.800354 264.526062,585.500366 
z"/>
<path fill="#FEFEFE" opacity="1.000000" stroke="none" 
	d="
M595.401611,796.381104 
	C567.329285,814.050537 539.544800,831.496704 511.700287,848.980591 
	C472.933990,824.633179 434.213898,800.321838 395.504333,775.993591 
	C391.029053,773.180908 384.878021,771.220947 382.653992,767.146240 
	C380.400421,763.017456 382.006378,756.755005 382.006134,751.427124 
	C381.997742,565.616699 382.017395,379.806274 381.900543,193.995911 
	C381.897430,189.075958 383.196869,186.027847 387.295319,182.931366 
	C429.044403,151.388809 470.579987,119.563698 512.683594,87.429741 
	C519.784668,92.854744 526.999573,98.330467 534.176331,103.855705 
	C568.794434,130.507614 603.382141,157.199112 638.052673,183.782745 
	C640.791382,185.882660 641.941223,188.043213 641.929932,191.585373 
	C641.795044,233.746414 641.840088,275.908020 641.837952,318.069489 
	C641.837891,319.532837 641.837952,320.996185 641.837952,322.727783 
	C619.405029,322.727783 597.307190,322.727783 574.795410,322.727783 
	C574.715027,321.588531 574.552307,320.339508 574.549622,319.090118 
	C574.482300,287.763031 574.373169,256.435760 574.462891,225.109085 
	C574.472595,221.719162 573.374146,219.757553 570.716614,217.735443 
	C551.278137,202.944733 531.983032,187.965515 512.667542,173.064941 
	C492.391876,188.512085 472.218872,203.950165 451.933289,219.238922 
	C449.665710,220.947937 448.947083,222.695251 448.948059,225.424118 
	C449.006592,391.237000 449.008484,557.049927 448.935120,722.862793 
	C448.933868,725.681396 449.752655,727.316406 452.144897,728.806580 
	C471.111908,740.621887 489.964966,752.620544 508.978180,764.360168 
	C510.323914,765.191162 513.098572,765.117798 514.477661,764.272339 
	C533.531555,752.591003 552.495850,740.760986 571.344055,728.750854 
	C572.915222,727.749695 574.395569,725.189819 574.399841,723.350525 
	C574.557434,656.359436 574.535217,589.367920 574.530457,522.376465 
	C574.530396,521.735596 574.432495,521.094727 574.348938,520.068970 
	C553.652710,520.068970 533.058533,520.068970 512.191040,520.068970 
	C512.191040,497.607666 512.191040,475.539337 512.191040,453.242737 
	C555.362488,453.242737 598.415710,453.242737 641.840637,453.242737 
	C641.840637,455.270935 641.840576,457.061859 641.840576,458.852814 
	C641.842346,560.007019 641.822693,661.161194 641.934448,762.315308 
	C641.938416,765.907654 640.930908,767.941833 637.848145,769.823181 
	C623.705078,778.453552 609.726807,787.354187 595.401611,796.381104 
z"/>
<path fill="#FDFDFD" opacity="1.000000" stroke="none" 
	d="
M686.258667,218.544678 
	C686.316711,213.359543 688.709229,216.915924 689.480713,217.428864 
	C697.210754,222.568573 704.837280,227.864609 712.475525,233.141739 
	C773.306519,275.168884 834.119324,317.222351 895.008484,359.164978 
	C897.786438,361.078491 898.862000,362.983063 898.831848,366.380310 
	C898.654785,386.356079 898.744751,406.334167 898.744751,426.656799 
	C874.453857,426.656799 850.391418,426.656799 825.722534,426.656799 
	C825.722534,420.030914 825.874329,413.282166 825.614502,406.549316 
	C825.550537,404.893707 824.585083,402.647797 823.289246,401.758209 
	C802.427551,387.436951 781.445190,373.291412 760.087646,358.833435 
	C760.087646,390.509277 760.087646,421.703918 760.087646,453.374023 
	C806.172607,453.374023 852.214355,453.374023 898.738770,453.374023 
	C898.738770,455.285706 898.738770,456.729156 898.738770,458.172607 
	C898.738708,513.003113 898.689026,567.833740 898.844055,622.663818 
	C898.855042,626.546631 897.620544,628.365051 894.328491,630.306702 
	C826.434143,670.350281 758.635376,710.556091 690.808289,750.713928 
	C690.436890,750.933899 689.932312,750.928833 689.225464,751.088623 
	C689.225464,689.833618 689.225464,628.788391 689.225464,567.530457 
	C712.712891,567.530457 735.972290,567.530457 759.606140,567.530457 
	C759.606140,585.935547 759.606140,604.185974 759.606140,623.147461 
	C773.910828,615.318970 787.630493,607.810364 801.350586,600.302490 
	C808.171631,596.569824 814.914246,592.681641 821.852600,589.181519 
	C824.719177,587.735474 825.855652,586.151489 825.819458,582.797119 
	C825.620056,564.326538 825.724182,545.852783 825.724182,526.813599 
	C779.259949,526.813599 733.053589,526.813599 686.260742,526.813599 
	C686.260742,423.826050 686.260742,321.404968 686.258667,218.544678 
z"/>
<path fill="#FDFDFD" opacity="1.000000" stroke="none" 
	d="
M264.527161,586.000366 
	C264.528259,620.800354 264.528259,655.100281 264.528259,690.127380 
	C255.527664,684.522400 246.897293,679.175720 238.294830,673.784485 
	C225.660385,665.866455 213.095001,657.836548 200.384338,650.043213 
	C197.624023,648.350769 196.707382,646.484924 196.711456,643.256409 
	C196.805405,568.928772 196.775055,494.600983 196.767838,420.273224 
	C196.767639,418.307007 196.767807,416.340820 196.767807,413.497650 
	C172.684326,431.841583 149.020142,449.866150 124.638359,468.437317 
	C124.638359,465.823761 124.638641,463.813568 124.638321,461.803375 
	C124.634415,436.971344 124.688248,412.139038 124.550850,387.307739 
	C124.534286,384.313477 125.431488,382.474243 127.792992,380.679718 
	C180.553726,340.586334 233.259491,300.420593 285.970001,260.261108 
	C301.953003,248.083817 317.917511,235.882248 333.896759,223.700012 
	C334.889984,222.942825 335.937988,222.257477 337.520355,221.145126 
	C337.520355,240.936508 337.520569,260.033813 337.520264,279.131134 
	C337.520111,286.964081 337.701965,294.804321 337.389282,302.624786 
	C337.311157,304.578094 336.139893,307.116913 334.622925,308.288879 
	C312.533112,325.354950 290.348083,342.299561 268.036591,359.074707 
	C265.275238,361.150879 264.461823,363.254120 264.465302,366.512360 
	C264.543213,439.508301 264.525604,512.504333 264.527161,586.000366 
z"/>
</svg>