<svg xmlns="http://www.w3.org/2000/svg" width="1024" height="928" viewBox="0 0 1024 928" version="1.1"><path d="M 503.500 91.599 C 499.650 94.648, 470.512 116.982, 438.750 141.230 L 381 185.318 381.020 476.409 L 381.040 767.500 444.031 807 C 478.676 828.725, 508.054 846.893, 509.316 847.374 C 511.283 848.124, 520.285 842.806, 572.555 810.015 C 606.075 788.987, 635.188 770.699, 637.250 769.377 L 641 766.972 641 609.486 L 641 452 576 452 L 511 452 511 485.500 L 511 519 541.750 519 L 572.500 519 572.211 622.250 C 571.990 701.520, 571.642 725.755, 570.711 726.597 C 569.170 727.993, 513.395 762.911, 511.617 763.594 C 510.887 763.873, 496.388 755.364, 479.395 744.684 L 448.500 725.266 448.248 473.287 L 447.996 221.308 478.735 197.904 C 495.642 185.032, 510.040 174.355, 510.732 174.178 C 512.378 173.756, 513.766 174.750, 545.750 199.253 L 573 220.130 573 271.065 L 573 322 607 322 L 641 322 640.942 253.250 L 640.884 184.500 629.692 176.088 C 623.536 171.461, 594.747 149.411, 565.715 127.088 C 536.684 104.764, 512.384 86.400, 511.715 86.278 C 511.047 86.156, 507.350 88.550, 503.500 91.599 M 685 370 L 685 526 754.500 526 L 824 526 824 555.827 L 824 585.653 792.615 602.827 C 775.353 612.272, 760.728 620, 760.115 620 C 759.322 620, 759 612.191, 759 593 L 759 566 723.500 566 L 688 566 688 658.500 C 688 709.375, 688.244 751, 688.543 751 C 688.841 751, 701.779 743.443, 717.293 734.206 C 732.807 724.969, 779.805 697.181, 821.733 672.456 L 897.967 627.500 897.983 539.750 L 898 452 828.500 452 L 759 452 759 405.441 C 759 368.473, 759.257 359.032, 760.250 359.609 C 764.469 362.062, 819.908 399.666, 821.750 401.324 C 823.832 403.197, 824 404.196, 824 414.674 L 824 426 861.250 426 L 898.500 426.001 898.224 393.111 L 897.948 360.221 792.057 287.110 C 733.818 246.900, 685.905 214, 685.584 214 C 685.263 214, 685 284.200, 685 370 M 326 226.862 C 321.325 230.589, 284.200 258.998, 243.500 289.992 C 202.800 320.986, 159.038 354.390, 146.250 364.224 L 123 382.105 123 424.552 C 123 452.662, 123.344 467, 124.017 467 C 124.955 467, 145.441 451.747, 180.750 424.759 L 195 413.867 195 530.362 L 195 646.857 207.250 654.643 C 231.491 670.050, 262.326 689, 263.154 689 C 263.619 689, 264 615.263, 264 525.139 L 264 361.278 300.500 333.480 L 337 305.681 337 262.840 C 337 229.212, 336.731 220.009, 335.750 220.042 C 335.063 220.065, 330.675 223.134, 326 226.862" stroke="none" fill="#010001" fill-rule="evenodd"/></svg>