<svg xmlns="http://www.w3.org/2000/svg" width="1024" height="928" viewBox="0 0 1024 928" version="1.1"><path d="M 510.140 87.260 C 509.473 87.927, 480.256 110.335, 445.214 137.055 L 381.500 185.636 381.248 476.174 L 380.997 766.711 411.248 785.674 C 427.887 796.104, 457.085 814.416, 476.134 826.366 L 510.768 848.094 547.634 824.932 C 567.910 812.193, 592.150 796.953, 601.500 791.066 C 610.850 785.179, 623.542 777.243, 629.704 773.431 L 640.909 766.500 640.954 609.250 L 641 452 576 452 L 511 452 511 485.500 L 511 519 542.005 519 L 573.009 519 572.755 622.708 L 572.500 726.416 541.637 745.728 L 510.774 765.040 484.137 748.340 C 469.487 739.155, 455.363 730.304, 452.750 728.670 L 448 725.701 448 473.096 L 448 220.492 462.750 209.359 C 470.863 203.235, 484.180 193.112, 492.345 186.863 C 500.509 180.613, 508.176 174.745, 509.382 173.822 C 511.530 172.178, 512.203 172.627, 542.287 195.799 L 573 219.455 573 270.727 L 573 322 607 322 L 641 322 640.943 253.750 L 640.886 185.500 636.193 181.953 C 630.454 177.617, 610.873 162.631, 595.095 150.500 C 585.819 143.368, 516.892 90.320, 512.426 86.876 C 511.823 86.411, 510.820 86.580, 510.140 87.260 M 685.247 369.689 L 685.500 525.500 755 525.757 L 824.500 526.013 824.338 556.108 L 824.176 586.204 791.603 604.004 L 759.031 621.805 758.766 594.152 L 758.500 566.500 723.250 566.237 L 688 565.974 688 658.500 L 688 751.025 691.750 748.663 C 693.813 747.363, 709.225 738.201, 726 728.302 C 742.775 718.404, 782.375 695.017, 814 676.331 C 845.625 657.646, 877.465 638.846, 884.755 634.553 L 898.011 626.747 897.755 539.623 L 897.500 452.500 828.250 452.500 L 759 452.500 759 405.197 L 759 357.895 789.750 378.626 C 806.663 390.029, 821.400 400.020, 822.500 400.830 C 824.290 402.148, 824.510 403.519, 824.591 413.901 L 824.682 425.500 861.355 425.762 L 898.027 426.025 897.764 393.328 L 897.500 360.631 800 293.308 C 746.375 256.280, 698.561 223.260, 693.747 219.931 L 684.994 213.878 685.247 369.689 M 333.472 221.884 C 332.387 222.921, 304.725 244.150, 272 269.059 C 239.275 293.969, 192.700 329.425, 168.500 347.850 C 144.300 366.276, 124.169 381.834, 123.765 382.425 C 122.905 383.684, 122.722 467, 123.580 467 C 124.279 467, 135.103 458.888, 169.282 432.750 C 183.486 421.887, 195.196 413, 195.304 413 C 195.412 413, 195.493 465.476, 195.485 529.613 L 195.469 646.227 199.485 648.967 C 205.292 652.930, 263.015 689, 263.550 689 C 263.797 689, 264.002 615.087, 264.005 524.750 L 264.009 360.500 300.255 332.916 L 336.500 305.332 336.761 262.666 C 336.904 239.200, 336.667 220, 336.233 220 C 335.799 220, 334.557 220.848, 333.472 221.884" stroke="none" fill="#fefffe" fill-rule="evenodd"/><path d="M 510.140 87.260 C 509.473 87.927, 480.256 110.335, 445.214 137.055 L 381.500 185.636 381.248 476.174 L 380.997 766.711 411.248 785.674 C 427.887 796.104, 457.085 814.416, 476.134 826.366 L 510.768 848.094 547.634 824.932 C 567.910 812.193, 592.150 796.953, 601.500 791.066 C 610.850 785.179, 623.542 777.243, 629.704 773.431 L 640.909 766.500 640.954 609.250 L 641 452 576 452 L 511 452 511 485.500 L 511 519 542.005 519 L 573.009 519 572.755 622.708 L 572.500 726.416 541.637 745.728 L 510.774 765.040 484.137 748.340 C 469.487 739.155, 455.363 730.304, 452.750 728.670 L 448 725.701 448 473.096 L 448 220.492 462.750 209.359 C 470.863 203.235, 484.180 193.112, 492.345 186.863 C 500.509 180.613, 508.176 174.745, 509.382 173.822 C 511.530 172.178, 512.203 172.627, 542.287 195.799 L 573 219.455 573 270.727 L 573 322 607 322 L 641 322 640.943 253.750 L 640.886 185.500 636.193 181.953 C 630.454 177.617, 610.873 162.631, 595.095 150.500 C 585.819 143.368, 516.892 90.320, 512.426 86.876 C 511.823 86.411, 510.820 86.580, 510.140 87.260 M 685.247 369.689 L 685.500 525.500 755 525.757 L 824.500 526.013 824.338 556.108 L 824.176 586.204 791.603 604.004 L 759.031 621.805 758.766 594.152 L 758.500 566.500 723.250 566.237 L 688 565.974 688 658.500 L 688 751.025 691.750 748.663 C 693.813 747.363, 709.225 738.201, 726 728.302 C 742.775 718.404, 782.375 695.017, 814 676.331 C 845.625 657.646, 877.465 638.846, 884.755 634.553 L 898.011 626.747 897.755 539.623 L 897.500 452.500 828.250 452.500 L 759 452.500 759 405.197 L 759 357.895 789.750 378.626 C 806.663 390.029, 821.400 400.020, 822.500 400.830 C 824.290 402.148, 824.510 403.519, 824.591 413.901 L 824.682 425.500 861.355 425.762 L 898.027 426.025 897.764 393.328 L 897.500 360.631 800 293.308 C 746.375 256.280, 698.561 223.260, 693.747 219.931 L 684.994 213.878 685.247 369.689 M 333.472 221.884 C 332.387 222.921, 304.725 244.150, 272 269.059 C 239.275 293.969, 192.700 329.425, 168.500 347.850 C 144.300 366.276, 124.169 381.834, 123.765 382.425 C 122.905 383.684, 122.722 467, 123.580 467 C 124.279 467, 135.103 458.888, 169.282 432.750 C 183.486 421.887, 195.196 413, 195.304 413 C 195.412 413, 195.493 465.476, 195.485 529.613 L 195.469 646.227 199.485 648.967 C 205.292 652.930, 263.015 689, 263.550 689 C 263.797 689, 264.002 615.087, 264.005 524.750 L 264.009 360.500 300.255 332.916 L 336.500 305.332 336.761 262.666 C 336.904 239.200, 336.667 220, 336.233 220 C 335.799 220, 334.557 220.848, 333.472 221.884" stroke="none" fill="#fefffe" fill-rule="evenodd"/><path d="M 510.140 87.260 C 509.473 87.927, 480.256 110.335, 445.214 137.055 L 381.500 185.636 381.248 476.174 L 380.997 766.711 411.248 785.674 C 427.887 796.104, 457.085 814.416, 476.134 826.366 L 510.768 848.094 547.634 824.932 C 567.910 812.193, 592.150 796.953, 601.500 791.066 C 610.850 785.179, 623.542 777.243, 629.704 773.431 L 640.909 766.500 640.954 609.250 L 641 452 576 452 L 511 452 511 485.500 L 511 519 542.005 519 L 573.009 519 572.755 622.708 L 572.500 726.416 541.637 745.728 L 510.774 765.040 484.137 748.340 C 469.487 739.155, 455.363 730.304, 452.750 728.670 L 448 725.701 448 473.096 L 448 220.492 462.750 209.359 C 470.863 203.235, 484.180 193.112, 492.345 186.863 C 500.509 180.613, 508.176 174.745, 509.382 173.822 C 511.530 172.178, 512.203 172.627, 542.287 195.799 L 573 219.455 573 270.727 L 573 322 607 322 L 641 322 640.943 253.750 L 640.886 185.500 636.193 181.953 C 630.454 177.617, 610.873 162.631, 595.095 150.500 C 585.819 143.368, 516.892 90.320, 512.426 86.876 C 511.823 86.411, 510.820 86.580, 510.140 87.260 M 685.247 369.689 L 685.500 525.500 755 525.757 L 824.500 526.013 824.338 556.108 L 824.176 586.204 791.603 604.004 L 759.031 621.805 758.766 594.152 L 758.500 566.500 723.250 566.237 L 688 565.974 688 658.500 L 688 751.025 691.750 748.663 C 693.813 747.363, 709.225 738.201, 726 728.302 C 742.775 718.404, 782.375 695.017, 814 676.331 C 845.625 657.646, 877.465 638.846, 884.755 634.553 L 898.011 626.747 897.755 539.623 L 897.500 452.500 828.250 452.500 L 759 452.500 759 405.197 L 759 357.895 789.750 378.626 C 806.663 390.029, 821.400 400.020, 822.500 400.830 C 824.290 402.148, 824.510 403.519, 824.591 413.901 L 824.682 425.500 861.355 425.762 L 898.027 426.025 897.764 393.328 L 897.500 360.631 800 293.308 C 746.375 256.280, 698.561 223.260, 693.747 219.931 L 684.994 213.878 685.247 369.689 M 333.472 221.884 C 332.387 222.921, 304.725 244.150, 272 269.059 C 239.275 293.969, 192.700 329.425, 168.500 347.850 C 144.300 366.276, 124.169 381.834, 123.765 382.425 C 122.905 383.684, 122.722 467, 123.580 467 C 124.279 467, 135.103 458.888, 169.282 432.750 C 183.486 421.887, 195.196 413, 195.304 413 C 195.412 413, 195.493 465.476, 195.485 529.613 L 195.469 646.227 199.485 648.967 C 205.292 652.930, 263.015 689, 263.550 689 C 263.797 689, 264.002 615.087, 264.005 524.750 L 264.009 360.500 300.255 332.916 L 336.500 305.332 336.761 262.666 C 336.904 239.200, 336.667 220, 336.233 220 C 335.799 220, 334.557 220.848, 333.472 221.884" stroke="none" fill="#fefffe" fill-rule="evenodd"/></svg>